<svg version="1.1" xmlns="http://www.w3.org/2000/svg" viewBox="0 0 260 260" width="260" height="260" filter="invert(93%) hue-rotate(180deg)">
  <!-- svg-source:excalidraw -->
  
  <defs>
    <style class="style-fonts">
      @font-face {
        font-family: "Virgil";
        src: url("https://excalidraw.com/Virgil.woff2");
      }
      @font-face {
        font-family: "Cascadia";
        src: url("https://excalidraw.com/Cascadia.woff2");
      }
    </style>
  </defs>
  <g stroke-linecap="round" transform="translate(10 10) rotate(0 120 120)"><path d="M0 0 L240 0 L240 240 L0 240" stroke="none" stroke-width="0" fill="#ced4da"></path><path d="M0 0 C88.76 0, 177.52 0, 240 0 M0 0 C71.36 0, 142.72 0, 240 0 M240 0 C240 63.54, 240 127.08, 240 240 M240 0 C240 74.55, 240 149.11, 240 240 M240 240 C147.19 240, 54.38 240, 0 240 M240 240 C172.89 240, 105.78 240, 0 240 M0 240 C0 175.67, 0 111.34, 0 0 M0 240 C0 171.99, 0 103.99, 0 0" stroke="#000000" stroke-width="1" fill="none"></path></g><g stroke-linecap="round" transform="translate(90 50) rotate(0 40 40)"><path d="M5.73 18.23 C5.73 18.23, 5.73 18.23, 5.73 18.23 M5.73 18.23 C5.73 18.23, 5.73 18.23, 5.73 18.23 M2.21 24.13 C12.36 14.95, 19.24 4.83, 22.54 2.96 M4.48 27.63 C12.69 18.94, 19.58 10.58, 25.49 2.01 M-2.47 39.39 C6.53 27.38, 14.95 19.49, 28.82 8.38 M0.31 37.51 C9.2 27.97, 17.29 13.3, 29.72 3.1 M1.44 37.57 C11.63 32.52, 25.83 20.54, 36.92 3.1 M1.9 40.52 C13.05 31.6, 21.64 19.18, 32.4 6.01 M4.72 47 C15.98 26.48, 34.03 12.46, 35.9 6.55 M4.51 43.69 C14.84 30.25, 29.47 15.33, 37.54 1.87 M1.91 50.03 C15.74 33.97, 29.02 26.05, 49.75 -2.03 M4.79 48.39 C13.86 35, 26.58 23.92, 47.12 2.52 M1.96 58.35 C22.05 36.2, 37.25 19.22, 53.39 6.3 M5.82 57.25 C21.67 34.5, 40.56 17.16, 51.45 1.98 M8.54 64.04 C14.1 45.46, 26.47 40.78, 54.73 5.21 M7.83 60.79 C23.38 41.66, 41.92 21.06, 53.6 3.22 M7.91 64.24 C23.23 44.58, 46.42 21.27, 62.07 8.3 M6.39 65.8 C21.9 50.85, 34.72 34.1, 59.2 4.91 M13.85 67.46 C31.26 51.89, 44.56 31.24, 59.71 8.24 M11.77 69.18 C30.51 45.97, 47.95 26.59, 62.38 8.17 M10.28 68.34 C28.26 60.32, 41.53 41.97, 69.04 8.06 M13.87 68.39 C25.97 58.5, 35.02 42.43, 65.28 11.56 M17.47 71.84 C32.96 51.25, 60.62 26.06, 68.33 9.4 M18.88 73.23 C37.07 49.74, 53.91 29.9, 68.2 10.87 M20.61 73.77 C43.21 53.45, 57.68 27.81, 73.79 15.23 M20.16 74.05 C38.77 54.41, 53.82 34.43, 73.03 17.54 M22.11 75.82 C39.39 57.75, 55.67 40.59, 75.3 18.13 M24.96 76.31 C37.95 60.93, 52.4 44.72, 73.35 18.51 M23.42 75.99 C38.04 62.11, 50.02 53.62, 74.85 22.05 M26.58 78.73 C42.98 64.01, 53.75 49.59, 75.25 21.63 M32.09 81.65 C41.44 61.52, 54 47.7, 78.97 29.77 M29.86 81.94 C47.09 61.92, 61.86 43.71, 80.15 26.73 M38.22 81.04 C52.35 64.69, 64.7 48.45, 81.79 31.94 M37.91 79.55 C49.64 66.15, 61.97 52.13, 82.23 30.3 M36.84 80.99 C57.22 65.94, 63.48 53.09, 80.82 35.3 M40.96 83.59 C52.45 73.24, 58.41 60.19, 78.54 37.35 M47.64 82.67 C56.93 71.56, 65.27 56.26, 81.28 45.67 M46.44 83.83 C57.01 70.89, 67.4 57.84, 79.78 43.99 M58.07 78.58 C64.71 70.73, 72.11 64.87, 79.97 49.26 M56.41 76.41 C63.14 68.59, 71.09 57.55, 80.49 50.38 M3.96 62.51 C3.96 62.51, 3.96 62.51, 3.96 62.51 M3.96 62.51 C3.96 62.51, 3.96 62.51, 3.96 62.51 M23.02 75.63 C14.81 67.03, 9.04 64.15, 5.75 56.33 M26.23 76.58 C20.19 71.24, 14.72 63.37, 4.65 54.45 M34.4 75.01 C25.89 69.16, 24.07 63.49, 4.38 51.05 M32.1 77.46 C21.49 70.01, 12.24 61.79, 1.89 50.21 M38.81 79.29 C31.79 64.84, 16.56 59.97, 0.59 44.52 M42.88 78.74 C25.33 68.37, 11.57 52.36, -0.81 44.15 M42.52 81.87 C37.36 71.28, 26.5 58.91, -1.64 36.45 M45.57 78.99 C30.53 65.37, 17.05 50.94, -0.71 38.6 M53.32 75.87 C29.45 64.55, 18.67 48.97, -1.29 30.51 M49.91 77.31 C37.93 66.43, 27.03 54.32, 0.51 33.26 M57.55 76.43 C42.74 60.4, 26.54 48, 5.66 30.09 M55.64 75.21 C37.85 59.38, 19 45.26, 1.03 28.59 M60.53 69.64 C44.66 61.08, 23.58 46.28, 5.25 28.33 M59.46 73.2 C40.3 61, 25.61 45.38, 4.37 23.48 M62.39 72.8 C50.74 58.05, 31.29 48.46, 8.83 24.51 M61.09 70.65 C44.75 53.97, 26.59 35.85, 4.98 23.21 M69.53 69.91 C48.23 54.71, 31.45 36.71, 2.47 18.26 M65.21 68.92 C44.61 50.31, 18.08 29.79, 8.09 17.35 M69.32 64.1 C55.11 49.61, 31.34 32.99, 9.57 11.79 M70.5 67.41 C56.92 54.78, 42.24 42.64, 10.64 13.55 M73.98 60.32 C57.25 52.67, 41.92 42.5, 16.77 13.52 M71.86 61.88 C55.47 50.01, 40.79 36.91, 13.57 12.88 M71.21 61.77 C60.55 51.25, 47.72 38.58, 12.48 8.32 M73.48 60.5 C63.33 49.08, 49.26 38.38, 14.78 7.59 M77.25 54.72 C59.05 41.61, 31.63 19.89, 19.39 10.37 M76.23 56.28 C63.7 45.49, 51.04 33.2, 19.98 5.68 M76.09 56.81 C67.62 41.66, 55.25 33.52, 25.73 7.47 M79.25 55.03 C66.57 42.42, 55.85 32.19, 24.27 2.83 M78.27 51.95 C59.05 29.04, 42.03 12.08, 27.23 -0.71 M81.16 49.84 C67.65 38.99, 51.52 25.18, 24.58 0.19 M85.58 47.92 C64.04 33.49, 50.64 13.91, 31.42 -2.47 M83.06 46.36 C61.01 25.36, 39.24 8.58, 30.27 0.28 M80.85 37.9 C74.11 25.8, 54.69 19.9, 38.07 4.34 M80.79 39.91 C70.53 31.52, 59.71 19.12, 37.97 0.94 M79.95 33.4 C67.73 22.19, 57.07 15.79, 40.74 1.09 M83.21 36.05 C68.29 22.38, 49.7 7.6, 43.51 -0.21 M79.72 25.27 C74.02 22.49, 67.92 18.25, 47.53 -1.99 M82.62 27.21 C74.29 23.28, 65.99 16.12, 49.01 -0.55 M73.41 12.92 C70.62 15.73, 64.92 11.95, 63.48 5.25 M72.68 16.4 C69.82 12.1, 63.67 9.15, 60.66 6.03" stroke="#228be6" stroke-width="0.5" fill="none"></path><path d="M24.87 2.4 C30.84 -0.66, 40.1 -0.57, 47.07 0.69 C54.03 1.96, 61.13 5.19, 66.63 10.01 C72.13 14.84, 77.85 22.44, 80.04 29.64 C82.24 36.83, 82.27 46.31, 79.79 53.2 C77.31 60.09, 71.15 66.43, 65.18 70.99 C59.2 75.56, 50.71 79.57, 43.95 80.6 C37.2 81.63, 31.29 80.15, 24.66 77.17 C18.03 74.19, 8.44 69.22, 4.19 62.72 C-0.06 56.21, -1.11 45.58, -0.84 38.14 C-0.56 30.71, -1.3 24.16, 5.85 18.1 C13 12.03, 33.69 4.06, 42.05 1.76 C50.4 -0.54, 56.01 4.18, 55.98 4.3 M25.43 2.09 C31.66 -0.47, 41.07 1.66, 48.13 2.87 C55.18 4.08, 62.27 4.98, 67.77 9.36 C73.28 13.75, 79.08 21.75, 81.17 29.17 C83.26 36.58, 82.82 47.16, 80.31 53.87 C77.79 60.58, 72.33 65.27, 66.1 69.44 C59.87 73.62, 49.96 77.71, 42.93 78.93 C35.9 80.14, 30.17 80.22, 23.92 76.76 C17.67 73.29, 9.18 64.41, 5.41 58.12 C1.64 51.82, 1.21 46.16, 1.28 38.99 C1.36 31.82, 2.1 20.91, 5.86 15.09 C9.62 9.27, 20.56 6.37, 23.83 4.08 C27.1 1.78, 25.42 0.65, 25.47 1.34" stroke="#000000" stroke-width="1" fill="none"></path></g><g stroke-linecap="round"><g transform="translate(130 130) rotate(0 0 60)"><path d="M0 0 C0 45.92, 0 91.83, 0 120 M0 0 C0 34.38, 0 68.76, 0 120" stroke="#000000" stroke-width="1" fill="none"></path></g></g><mask></mask><g stroke-linecap="round"><g transform="translate(130 150) rotate(0 -30 40)"><path d="M0 0 C-23.11 30.82, -46.23 61.63, -60 80 M0 0 C-20.15 26.86, -40.3 53.73, -60 80" stroke="#000000" stroke-width="1" fill="none"></path></g></g><mask></mask><g stroke-linecap="round"><g transform="translate(130 150) rotate(180 30 40)"><path d="M0 0 C16.96 22.61, 33.91 45.22, 60 80 M0 0 C21.3 28.4, 42.61 56.81, 60 80" stroke="#000000" stroke-width="1" fill="none"></path></g></g><mask></mask></svg>